<?xml version="1.0" encoding="UTF-8"?>
<svg width="24px" height="15px" viewBox="0 0 24 15" version="1.1" xmlns="http://www.w3.org/2000/svg" xmlns:xlink="http://www.w3.org/1999/xlink">
    <title>bank-account-sm</title>
    <defs>
        <path d="M21.8181818,0 C23.0231667,0 24,0.746192084 24,1.66666667 L24,13.3333333 C24,14.2538079 23.0231667,15 21.8181818,15 L2.18181818,15 C0.976833273,15 0,14.2538079 0,13.3333333 L0,1.66666667 C0,0.746192084 0.976833273,0 2.18181818,0 L21.8181818,0 Z M21.8181818,5.83333333 L2.181,5.833 L2.18181818,13.3333333 L21.8181818,13.3333333 L21.8181818,5.83333333 Z M7.5,10 L7.5,11.6666667 L3.33333333,11.6666667 L3.33333333,10 L7.5,10 Z M8.33333333,7.5 L8.33333333,9.16666667 L3.33333333,9.16666667 L3.33333333,7.5 L8.33333333,7.5 Z M13.3333333,7.5 L13.3333333,9.16666667 L9.16666667,9.16666667 L9.16666667,7.5 L13.3333333,7.5 Z M21.8181818,1.66666667 L2.18181818,1.66666667 L2.181,4.166 L21.8181818,4.16666667 L21.8181818,1.66666667 Z" id="path-1"></path>
    </defs>
    <g id="bank-account-sm" stroke="none" stroke-width="1" fill="none" fill-rule="evenodd">
        <mask id="mask-2" fill="white">
            <use xlink:href="#path-1"></use>
        </mask>
        <use id="i-credit-card" fill="#000000" xlink:href="#path-1"></use>
    </g>
</svg>