<?xml version="1.0" encoding="UTF-8"?>
<svg width="16px" height="15px" viewBox="0 0 16 15" version="1.1" xmlns="http://www.w3.org/2000/svg" xmlns:xlink="http://www.w3.org/1999/xlink">
    <title>amex-sm</title>
    <g id="InVision" stroke="none" stroke-width="1" fill="none" fill-rule="evenodd">
        <g id="3.4" transform="translate(-32.000000, -488.000000)" fill="#006FCF" fill-rule="nonzero">
            <g id="amex-sm" transform="translate(32.000000, 488.000000)">
                <path d="M0.5,0 L0.5,15 L15.5,15 L15.5,12.62319 L13.69037,12.62319 L12.75869,11.59299 L11.8223,12.62319 L5.85581,12.62319 L5.85581,7.82181 L3.93008,7.82181 L6.31874,2.41605 L8.62238,2.41605 L9.44471,4.26798 L9.44471,2.41605 L12.29618,2.41605 L12.79127,3.81156 L13.2896,2.41605 L15.5,2.41605 L15.5,0 L0.5,0 Z M13.73687,3.01722 L12.79532,5.63181 L11.85983,3.01722 L10.06676,3.01722 L10.06676,7.21506 L11.20016,7.21506 L11.20016,4.27656 L12.27968,7.21506 L13.28708,7.21506 L14.36651,4.2705 L14.36651,7.21506 L15.5,7.21506 L15.5,3.01722 L13.73687,3.01722 Z M6.73856,3.01722 L4.88543,7.21506 L6.1448,7.21506 L6.49268,6.37548 L8.42363,6.37548 L8.77745,7.21506 L10.06676,7.21506 L8.21384,3.01722 L6.73856,3.01722 Z M7.45817,4.06065 L8.0279,5.43393 L6.88841,5.43393 L7.45817,4.06065 Z M14.01914,7.82421 L12.78983,9.16755 L11.57234,7.82421 L10.06718,7.82421 L12.04613,9.92316 L10.06718,12.02208 L11.53043,12.02208 L12.7658,10.66674 L13.9952,12.02208 L15.5,12.02208 L13.50944,9.91113 L15.5,7.82421 L14.01914,7.82421 Z M6.49298,7.82421 L6.49298,12.02208 L10.06709,12.02208 L10.06709,11.05056 L7.63844,11.05056 L7.63844,10.39689 L10.00715,10.39689 L10.00715,9.44931 L7.63844,9.44931 L7.63844,8.79576 L10.06709,8.79576 L10.06709,7.82421 L6.49298,7.82421 Z M14.34725,9.9129 L15.5,11.13927 L15.5,8.69676 L14.34725,9.9129 Z" id="Fill-1"></path>
            </g>
        </g>
    </g>
</svg>