<?xml version="1.0" encoding="UTF-8"?>
<svg width="24px" height="15px" viewBox="0 0 24 15" version="1.1" xmlns="http://www.w3.org/2000/svg" xmlns:xlink="http://www.w3.org/1999/xlink">
    <title>mc-sm</title>
    <defs>
        <polygon id="path-1" points="1.16274709e-05 0.00267124198 10.6194492 0.00267124198 10.6194492 13.2401404 1.16274709e-05 13.2401404"></polygon>
        <polygon id="path-3" points="10.6193581 1.85937026e-15 21.2395432 1.85937026e-15 21.2395432 13.2391751 10.6193581 13.2391751"></polygon>
    </defs>
    <g id="mc-sm" stroke="none" stroke-width="1" fill="none" fill-rule="evenodd">
        <g id="Group-2">
            <g id="Group" transform="translate(1.390000, 0.900000)">
                <polygon id="Fill-1" fill="#FF5F00" points="7.46163321 11.8236661 13.7808387 11.8236661 13.7808387 1.41583574 7.46163321 1.41583574"></polygon>
                <mask id="mask-2" fill="white">
                    <use xlink:href="#path-1"></use>
                </mask>
                <g id="Clip-3"></g>
                <path d="M8.11255149,6.62070695 C8.11091061,4.59006773 9.0354545,2.67139404 10.6194492,1.41771103 C7.76942556,-0.840903987 3.64316304,-0.342298866 1.40318155,2.53185079 C-0.836617634,5.40600044 -0.34198392,9.56674252 2.50822207,11.8255414 C4.88840752,13.7116734 8.23926378,13.7116734 10.6194492,11.8255414 C9.03490754,10.5713068 8.11036365,8.65189772 8.11255149,6.62070695" id="Fill-2" fill="#EB001B" mask="url(#mask-2)"></path>
                <mask id="mask-4" fill="white">
                    <use xlink:href="#path-3"></use>
                </mask>
                <g id="Clip-8"></g>
                <path d="M21.2396708,6.62070695 C21.2394885,10.2760414 18.3008574,13.2391751 14.6759744,13.2391751 C13.2046533,13.2391751 11.7761774,12.74057 10.6193581,11.8237029 C13.4695641,9.56508785 13.9643801,5.40397808 11.7243986,2.53001227 C11.4013278,2.11561111 11.0304893,1.74147342 10.6193581,1.41587251 C13.4691994,-0.843477907 17.5954619,-0.34542434 19.8359904,2.52835761 C20.7452194,3.69452733 21.2394885,5.13518726 21.2396708,6.61886843 L21.2396708,6.62070695 Z" id="Fill-7" fill="#F79E1B" mask="url(#mask-4)"></path>
            </g>
            <rect id="Rectangle" stroke="#CCCCCC" stroke-width="0.5" x="0" y="0" width="24" height="15"></rect>
        </g>
    </g>
</svg>