<?xml version="1.0" encoding="UTF-8"?>
<svg width="24px" height="15px" viewBox="0 0 24 15" version="1.1" xmlns="http://www.w3.org/2000/svg" xmlns:xlink="http://www.w3.org/1999/xlink">
    <title>i/visa-ko</title>
    <g id="i/visa-ko" stroke="none" stroke-width="1" fill="none" fill-rule="evenodd">
        <g id="VisaWhite" transform="translate(0.000000, 0.081081)" fill-rule="nonzero">
            <path d="M23.8054054,14.0108108 C23.8054054,14.4972973 23.4162162,14.8864865 22.9297297,14.8864865 L1.13513514,14.8864865 C0.648648649,14.8864865 0.259459459,14.4972973 0.259459459,14.0108108 L0.259459459,0.908108108 C0.259459459,0.421621622 0.648648649,0.0324324324 1.13513514,0.0324324324 L22.9297297,0.0324324324 C23.4162162,0.0324324324 23.8054054,0.421621622 23.8054054,0.908108108 L23.8054054,14.0108108 L23.8054054,14.0108108 Z" id="Path" stroke="#CCCCCC" fill="#FFFFFF"></path>
            <path d="M9.21081081,4.34594595 L6.58378378,10.6054054 L4.86486486,10.6054054 L3.56756757,5.61081081 C3.5027027,5.31891892 3.40540541,5.18918919 3.17837838,5.05945946 C2.78918919,4.86486486 2.14054054,4.63783784 1.58918919,4.54054054 L1.62162162,4.34594595 L4.37837838,4.34594595 C4.73513514,4.34594595 5.05945946,4.57297297 5.12432432,4.99459459 L5.80540541,8.62702703 L7.49189189,4.37837838 L9.21081081,4.37837838 L9.21081081,4.34594595 Z M15.9243243,8.56216216 C15.9243243,6.90810811 13.6540541,6.81081081 13.6540541,6.0972973 C13.6540541,5.87027027 13.8810811,5.64324324 14.3351351,5.57837838 C14.5621622,5.54594595 15.2108108,5.51351351 15.9243243,5.87027027 L16.2162162,4.54054054 C15.827027,4.41081081 15.3405405,4.24864865 14.6918919,4.24864865 C13.1027027,4.24864865 11.9675676,5.09189189 11.9675676,6.32432432 C11.9675676,7.23243243 12.7783784,7.71891892 13.3945946,8.01081081 C14.0108108,8.3027027 14.2378378,8.4972973 14.2378378,8.78918919 C14.2378378,9.21081081 13.7513514,9.40540541 13.2648649,9.40540541 C12.4540541,9.40540541 11.9675676,9.17837838 11.6108108,9.01621622 L11.3189189,10.3783784 C11.7081081,10.5405405 12.3891892,10.7027027 13.1027027,10.7027027 C14.7891892,10.7027027 15.8918919,9.85945946 15.9243243,8.56216216 M20.1405405,10.6054054 L21.6324324,10.6054054 L20.3351351,4.34594595 L18.9405405,4.34594595 C18.6162162,4.34594595 18.3567568,4.54054054 18.2594595,4.8 L15.827027,10.6054054 L17.5135135,10.6054054 L17.8378378,9.66486486 L19.9135135,9.66486486 L20.1405405,10.6054054 Z M18.3243243,8.4 L19.1675676,6.06486486 L19.6540541,8.4 L18.3243243,8.4 Z M11.5135135,4.34594595 L10.1837838,10.6054054 L8.56216216,10.6054054 L9.89189189,4.34594595 L11.5135135,4.34594595 Z" id="Shape" fill="#1A1F71"></path>
        </g>
    </g>
</svg>